<svg width="162" height="55" viewBox="0 0 162 55" fill="none" xmlns="http://www.w3.org/2000/svg">
<path d="M3.52816 42.9127V2.31907H19.5436C22.6225 2.31907 25.2455 2.9071 27.4126 4.08315C29.5797 5.24599 31.2315 6.86471 32.3679 8.93932C33.5175 11.0007 34.0923 13.3793 34.0923 16.0749C34.0923 18.7706 33.5109 21.1491 32.3481 23.2105C31.1852 25.2719 29.5004 26.8774 27.2937 28.0271C25.1001 29.1767 22.4441 29.7515 19.3256 29.7515H9.11771V22.8736H17.9381C19.5899 22.8736 20.9509 22.5895 22.0213 22.0213C23.1048 21.4398 23.9109 20.6404 24.4394 19.6229C24.9812 18.5922 25.2521 17.4095 25.2521 16.0749C25.2521 14.7271 24.9812 13.551 24.4394 12.5468C23.9109 11.5293 23.1048 10.743 22.0213 10.1881C20.9377 9.61985 19.5634 9.33575 17.8985 9.33575H12.1107V42.9127H3.52816ZM39.5084 42.9127V12.4675H47.6946V17.7795H48.0117C48.5667 15.8899 49.4983 14.4628 50.8065 13.4982C52.1147 12.5203 53.6211 12.0314 55.3257 12.0314C55.7485 12.0314 56.2044 12.0578 56.6933 12.1107C57.1823 12.1636 57.6117 12.2362 57.9817 12.3287V19.8211C57.5853 19.7022 57.0369 19.5965 56.3366 19.504C55.6362 19.4115 54.9953 19.3652 54.4139 19.3652C53.1718 19.3652 52.0618 19.6361 51.084 20.1779C50.1193 20.7065 49.3529 21.4464 48.7847 22.3979C48.2297 23.3493 47.9522 24.446 47.9522 25.6882V42.9127H39.5084Z" fill="#272E3F"/>
<g clip-path="url(#clip0_170_2819)">
<rect x="65.2793" y="9.42297" width="33.4898" height="33.4898" rx="16.7449" fill="#3B82F6"/>
<path d="M88.9524 20.389L91.3031 22.5047C93.4405 24.4284 94.5093 25.3902 94.5093 26.6245C94.5093 27.8587 93.4405 28.8205 91.3031 30.7442L88.9524 32.8599" stroke="white" stroke-width="1.39541" stroke-linecap="round"/>
<path d="M84.7773 16.4683L82.0243 26.7426L79.2713 37.017" stroke="white" stroke-width="1.39541" stroke-linecap="round"/>
<path d="M75.0959 20.389L72.7452 22.5047C70.6078 24.4284 69.5391 25.3902 69.5391 26.6245C69.5391 27.8587 70.6078 28.8205 72.7452 30.7442L75.0959 32.8599" stroke="white" stroke-width="1.39541" stroke-linecap="round"/>
</g>
<path d="M108.418 12.4675H116.862V44.4191C116.862 46.7712 116.399 48.6741 115.474 50.1276C114.549 51.5812 113.221 52.6449 111.49 53.3188C109.772 53.9927 107.718 54.3297 105.326 54.3297C105.035 54.3297 104.758 54.3231 104.493 54.3099C104.216 54.3099 103.925 54.3033 103.621 54.29V47.6896C103.846 47.7028 104.044 47.7094 104.216 47.7094C104.374 47.7226 104.546 47.7293 104.731 47.7293C106.092 47.7293 107.044 47.4385 107.585 46.8571C108.14 46.2889 108.418 45.43 108.418 44.2804V12.4675ZM112.62 8.5429C111.378 8.5429 110.308 8.12666 109.409 7.29417C108.51 6.44847 108.061 5.43759 108.061 4.26154C108.061 3.0987 108.51 2.10104 109.409 1.26855C110.308 0.422851 111.378 -4.14327e-07 112.62 -4.14327e-07C113.889 -4.14327e-07 114.966 0.422851 115.851 1.26855C116.749 2.10104 117.199 3.0987 117.199 4.26154C117.199 5.43759 116.749 6.44847 115.851 7.29417C114.966 8.12666 113.889 8.5429 112.62 8.5429ZM131.832 2.31907L140.018 16.1542H140.335L148.561 2.31907H158.253L145.865 22.6159L158.531 42.9127H148.66L140.335 29.0578H140.018L131.693 42.9127H121.862L134.567 22.6159L122.099 2.31907H131.832Z" fill="#272E3F"/>
<defs>
<clipPath id="clip0_170_2819">
<rect x="65.2793" y="9.42297" width="33.4898" height="33.4898" rx="16.7449" fill="white"/>
</clipPath>
</defs>
</svg>
