<svg width="579" height="197" viewBox="0 0 579 197" fill="none" xmlns="http://www.w3.org/2000/svg">
<path d="M12.7292 154.825V8.36703H70.5114C81.6196 8.36703 91.0831 10.4886 98.9018 14.7316C106.721 18.927 112.68 24.7672 116.78 32.2522C120.928 39.6895 123.002 48.271 123.002 57.9967C123.002 67.7224 120.904 76.3039 116.708 83.7412C112.513 91.1785 106.434 96.9711 98.4728 101.119C90.5587 105.267 80.976 107.34 69.7247 107.34H32.8958V82.5255H64.7188C70.6782 82.5255 75.5888 81.5005 79.4504 79.4505C83.3598 77.3528 86.268 74.4685 88.175 70.7975C90.1296 67.0788 91.107 62.8119 91.107 57.9967C91.107 53.1339 90.1296 48.8908 88.175 45.2675C86.268 41.5965 83.3598 38.7599 79.4504 36.7575C75.5411 34.7075 70.5829 33.6825 64.5758 33.6825H43.6942V154.825H12.7292ZM142.542 154.825V44.9814H172.077V64.1468H173.221C175.224 57.3293 178.585 52.1804 183.305 48.7001C188.024 45.1721 193.459 43.4082 199.609 43.4082C201.135 43.4082 202.78 43.5035 204.544 43.6942C206.308 43.8849 207.857 44.1471 209.192 44.4809V71.5126C207.762 71.0835 205.783 70.7021 203.257 70.3684C200.73 70.0347 198.418 69.8678 196.32 69.8678C191.838 69.8678 187.834 70.8452 184.306 72.7998C180.825 74.7068 178.06 77.3766 176.01 80.8092C174.008 84.2418 173.007 88.1989 173.007 92.6803V154.825H142.542Z" fill="#272E3F"/>
<g clip-path="url(#clip0_45_1378)">
<rect x="235.655" y="33.9971" width="120.828" height="120.828" rx="60.4138" fill="#3B82F6"/>
<path d="M321.065 73.5615L329.547 81.1945C337.258 88.135 341.114 91.6053 341.114 96.0583C341.114 100.511 337.258 103.981 329.547 110.922L321.065 118.555" stroke="white" stroke-width="5.03448" stroke-linecap="round"/>
<path d="M306.002 59.416L296.069 96.4849L286.137 133.554" stroke="white" stroke-width="5.03448" stroke-linecap="round"/>
<path d="M271.073 73.5615L262.591 81.1945C254.88 88.135 251.024 91.6053 251.024 96.0583C251.024 100.511 254.88 103.981 262.591 110.922L271.073 118.555" stroke="white" stroke-width="5.03448" stroke-linecap="round"/>
</g>
<path d="M391.295 44.9814H421.759V160.26C421.759 168.746 420.091 175.611 416.754 180.855C413.416 186.1 408.625 189.937 402.38 192.369C396.182 194.8 388.768 196.016 380.139 196.016C379.09 196.016 378.089 195.992 377.136 195.944C376.134 195.944 375.086 195.921 373.989 195.873V172.059C374.8 172.107 375.515 172.131 376.134 172.131C376.707 172.178 377.326 172.202 377.994 172.202C382.904 172.202 386.337 171.153 388.292 169.056C390.294 167.006 391.295 163.907 391.295 159.759V44.9814ZM406.456 30.822C401.974 30.822 398.113 29.3202 394.871 26.3167C391.629 23.2655 390.008 19.6183 390.008 15.3753C390.008 11.1799 391.629 7.58039 394.871 4.57687C398.113 1.52566 401.974 5.77208e-05 406.456 5.77208e-05C411.033 5.77208e-05 414.918 1.52566 418.112 4.57687C421.354 7.58039 422.975 11.1799 422.975 15.3753C422.975 19.6183 421.354 23.2655 418.112 26.3167C414.918 29.3202 411.033 30.822 406.456 30.822ZM475.769 8.36703L505.304 58.2828H506.448L536.126 8.36703H571.095L526.4 81.5959L572.097 154.825H536.483L506.448 104.837H505.304L475.269 154.825H439.798L485.638 81.5959L440.657 8.36703H475.769Z" fill="#272E3F"/>
<defs>
<clipPath id="clip0_45_1378">
<rect x="235.655" y="33.9971" width="120.828" height="120.828" rx="60.4138" fill="white"/>
</clipPath>
</defs>
</svg>
